/* XPM */
static char *ceiling_sky_xpm[] = {
"64 64 5 1",
". c #6fb6ff",
"+ c #4aa4ff",
"* c #2f8ef0",
"o c #1f78d1",
"# c #e6f6ff",
"****************************************************************",
"****************************************************************",
"****************************************************************",
"****************************************************************",
"****************************************************************",
"****************************************************##########**",
"*************************************************###############",
"************************************************################",
"**********************************************##################",
"********************************************########**********##",
"*******************************************######***************",
"******************************************######****************",
"*****************************************#####******************",
"***************************************#####********************",
"**************************************#####*********************",
"##***********************************#####**********************",
"###ooooooooooooooooooooooooooooooooo#####ooooooooooooooooooooooo",
"####ooooooooooooooooooooooooooooooo####ooooooooooooooooooooooooo",
"o####oooooooooooooooooooooooooooo#####oooooooooooooooooooooooooo",
"oo#####ooooooooooooooooooooooooo#####ooooooooooooooooooooooooooo",
"ooo#####oooooooooooooooooooooo######oooooooooooooooooooooooooooo",
"oooo######ooooooooooooooooooo######ooooooooooooooooooooooooooooo",
"ooooo#######ooooooooooooooo######ooooooooooooooooooooooooooooooo",
"ooooooo#######ooooooooooo#######oooooooooooooooooooooooooooooooo",
"oooooooo######################oooooooooooooooooooooooooooooooooo",
"oooooooooo###################ooooooooooooooooooooooooooooooooooo",
"oooooooooooo###############ooooooooooooooooooooooooooooooooooooo",
"oooooooooooooo###########ooooooooooooooooooooooooooooooooooooooo",
"oooooooooooooooooooooooooooooooooooooooooooooooooooooooooooooooo",
"oooooooooooooooooooooooooooooooooooooooooooooooooooooooooooooooo",
"oooooooooooooooooooooooooooooooooooooooooooooooooooooooooooooooo",
"oooooooooooooooooooooooooooooooooooooooooooooo##################",
"++++++++++++++++++++++++++++++++++++++++++######################",
"+++++++++++++++++++++++++++++++++++++++#########################",
"++++++++++++++++++++++++++++++++++++############################",
"+++++++++++++++++++++++++++++++++#############++++++++++++++++++",
"+++++++++++++++++++++++++++++++###########++++++++++++++++++++++",
"+++++++++++++++++++++++++++++##########+++++++++++++++++++++++++",
"++++++++++++++++++++++++++##########++++++++++++++++++++++++++++",
"++++++++++++++++++++++++#########+++++++++++++++++++++++++++++++",
"++++++++++++++++++++++#########+++++++++++++++++++++++++++++++++",
"++++++++++++++++++++#########+++++++++++++++++++++++++++++++++++",
"+++++++++++++++++#########++++++++++++++++++++++++++++++++++++++",
"++++++++++++++##########++++++++++++++++++++++++++++++++++++++++",
"+++++++++++###########++++++++++++++++++++++++++++++++++++++++++",
"+++++++#############++++++++++++++++++++++++++++++++++++++++++++",
"#################+++++++++++++++++++++++++++++++++++++++++++++++",
"##############++++++++++++++++++++++++++++++++++++++++++++++++++",
"###########.....................................................",
"#######.........................................................",
"................................................................",
"................................................................",
"................................................................",
"................................................................",
"................................................................",
"................................................................",
"................................................................",
"................................................................",
"................................................................",
"................................................................",
"................................................................",
"................................................................",
"................................................................",
"................................................................",
};
