/* XPM */
static char *floor_grass_128_xpm[] = {
"128 128 8 1",
". c #1f6e21",
"+ c #267a27",
"* c #2f8a2f",
"o c #38993a",
"x c #41a544",
"# c #49b14d",
"= c #52be56",
"- c #5bcb5f",
"xx#==##xxooooo********ooxxxxx#########=========###==========##########xxoooooooooooxxxxxxxxxxxxx##xxxxoo***oo**+.....+++++**oooo",
"xx#==##xoooooo********ooxxxx##########======================##########xxoooooooooooxxxxoooxxxxxx#xxxxxo********+++++++++++**oooo",
"xx##=#xxoooooo********oxxx############==-==========###=====#########xxxoooooooooooooooooooooooxx#xxxooo********+++++++******oooo",
"xx####xooooooo********oxx####=====####==--=========############xxxxxxxxoooooooxxxxoo*******oooxx#xxoo****+++++*************ooooo",
"xx####xooooooo********oxx###======####==--=========###########xxxxxxxxooooooooxxxxo**********oxx#xxoo****+++++**oo****oooooooooo",
"xx####xooooooo********oxxx############=============###########xxxxxxxxxooooooooxxoo*********ooxx#xxooo**********oooooooooooooooo",
"####xxxxoooooo********oooxxx#############=========##########xxxxxxxxxxxxxoooooooooooooo***ooooxx##xooooo**********ooooooooo**ooo",
"###xxxxxxxxoooo*****oooooooxxxx#####==####==--====########xxxxxxxx####xxxxoo******oooooo*ooooox###xxoooooooo******ooooooooo***oo",
"=##xooxxxxxxooo*****oo***ooxxxxxxx##=##xx#==--====########xxxxxxxx#####xxxoo*******ooooooooooxx###xxoooooooooo****ooooooooo***oo",
"###xxxxxxxxooo******ooo**ooxxxxxxx#####xx##=-=====########xxxxxxxx####xxxoo********ooooooooooxx###xxxxxxxooooooo*oooxxxxxooooooo",
"###xxxxxxxoooo*****ooooooooxxxxx######xxxx#========########xxxx#####xxxxooo********ooooooxxxxxx####xxxxxxxxxoooooooxxxxxxxxooooo",
"###xxxxxxxooo******ooooooooxxx####xxxxxxxx#=====-==####==##xxxx####xxxoooo*********oooxxxxxxxxx########xxxxxxxooooxxxxxxxxxxxxoo",
"x###xxxxxooo******oooooooooxxx####xxoxxxxx##===--==####==##xxxx####xxxoo***********oooxxx#xxxx##########xxxxxxxxxxxxxx####xxxxxo",
"xxxxxxxxxoo********ooooooooxxxx###xxoxxxxx###======####==##xxxx####xxxooo**********oooxxxxxxx#############xxxxxxxxxxxx####xxxxxo",
"xxxxxooooo**********oo***ooooxx##xxxxxxxxxx###===========##xxx#####xxooooo**********oooxxx#####==#############xxxxxxxxxxxxxxxxxx",
"xxxoooooo***++************ooooxx#xxxxxxxxxxxx##==========##xxx##=##xooooooo*********ooooxx###=====#############xxxxxxxxxxxxoooxx",
"xxxooooo***+++*************oooxx#xxxxxxoxxxxxx##=========##xxx##=##xooooooo*********ooooxx###======############xxxxxxxxxxxooooxx",
"xxxoooooo***++************ooooxxxxxxxxxxxxxxx####=======###xxx##=##xxoxxooo**********oooxx###======#############xxxxxxxxxxxoooox",
"xxxxoooooo**++**********oooooooxxxxxxxxxxxx################xxx######xxxxxoo***********oooxx###=====#########=###x######xxxxoooox",
"xxxxxxxxxoo*++*********oooo**ooooxxx#xxxxx#############xxxxxxx########xxxoo**+****++***ooxxx##=======######===##########xxxxoooo",
"xxxxxxxxxxo************oooo***ooooxx##xxxx######xxxxxxxxxxxxxx#########xxoo********+***ooxxx###======###x##===##########xxxxoooo",
"xxxxxxxxxxo***********ooooo***ooooxxxxxxxxx####xxxxxxxxxxxxxxx#########xxxo***********oooxxx####=====###xx##=###########xxxxoooo",
"xxxxooxxxxo********oooooooo**oooxoooooooxxxxxxxxxxxxxxxxxxxxxxx#######xxxxoooooooooooooooxxx#######==##xxx###############xxxoooo",
"xxoooooxxooo******oooooxxoo**ooxxxooooooooooxxxxxxxxxxxxxxxooxx#######xxxxxxxxxxxxxxxxxooxx############xxxxxxxx##########xxxooxx",
"xooo*ooxxooooo****ooxxxxxoo***oxxxo***ooooooooxxxxxoooooxxoooxx#######xxxxxxxx####xxxxxxxxx############xxxxxxxx##########xxxooxx",
"ooooooooxoooooo**ooxxxxxxooo*oooooo*****oooooooxxxooooooxxoooxx#######xxxxx##########xxxxxx####xx######xxxxxxxx#########xxxoooox",
"oooxxoooooooooo***oxxxxxxxooooooooo*******oooooooooooooxxxxxxxxx######xxxxx############xxx####xxxx####xxxxxxxxxx########xxxooooo",
"ooxxxxooooooxoo***oxxxxxxxxoooooo*********ooooo****oooxxxxxxxxxxxx#####xxx####################xxxxx###xxxxxxxxxxx#######xxoo****",
"ooxx#xxo*ooxxxo***oxxxxxxxxoooo*********+**ooo*+++*oooxxxxxxxxxxxxx####xxx#########===#######xxxxxxx#xxxxxxxxxxxxx######xxo*****",
"ooxx#xxooooxxxoooooxxxxxxxooooo********++**oo**+++*ooooxxxxxxxxxxx#################===#######xxxoxxxxxxxxxxxxxxxxx#####xxxo*****",
"oxx##xxooooxxxxoooooooxxxxooooo*********++*****+++**ooooxxxooxxx###############======######xxxxoooxxxxxxxxxxxxxx#####xxxxxoo***o",
"oxx###xoooxxxxxxxooooooxxoo****oooo*****++++++++*****ooooooooox####xx###==####======#####xxxxxoooooxxxx###xxoxxx###xxxxxxxoooooo",
"xxx###xxooxxxxxxxxooooooxoo****ooooo****++++++++*****ooooooooox####xxx#===####==-==######xxxxxooooooxxx###xoooxx###xxxxxxxoooooo",
"oxx##xxoooxxxxxxxxooooooooo****oooo*****++++++++*****ooooooooxx####xx###==####==-===####xxxxxxooooooxxx###xxoxxx###xxxxxxxoooooo",
"ooxxxxxoooxxxxxxxooo**ooooooooooooo*****++*****+++***ooooooxxxxxxx#######============##xxxxxxxoooooooxxxxxxxxxxx#####xxoooo****o",
"oooxxxoooooxxxxxoooo******ooooooo***********o**+++**oo***ooxxxxxxxx#######===========##xxxxxxxxooooooooxxxxxxxxxx####xxoo*******",
"oooxxxoo*ooxxxxooooo****+**ooooo***********ooo**++**oo***oxx##xxxxx#######============#xxxxxxxxoooooooooooxxxxxxxx###xxo********",
"ooooxooooooxxxoooooo****+**ooooo***********ooo******ooo**oxx##xxxx#########==========##xxxxxxxxooooooooooooxxxxxxxx##xxoo******o",
"ooooxoooooooooooooooo***+**oooo*****o**********ooo**oooooox####xxx#########=====#====####xxxxxxxxxxxxooooooxxxxxxxxxxxxooo*****o",
"oooooooooooo*****ooooo**++********oooo********ooooo**oooxxx################===#####===####xxxxxxxxxxxxoooooooxxxxxxxxxxxxoo***oo",
"ooooooooooo*******oooo*+++********oooo********oxxxoo*ooxxxx###############################xxxxxxxxxxxxooooooooxxxxxoooxxxxo***ox",
"ooooooooooo********oo***++*******************ooxxxooooxxxx#################################xxxxxxxxxxxoooooooooxxxxooooxxxo***ox",
"***ooooooo*****************+++************oooooxxxxxxxxx############x#######xxxxxxxxxx#####xxxxxxxxxxxxxxooooooxxxoooooxxxoo*ooo",
"++****oooo*+++**o**********++++***+++++***oxxxxoooxxx##########xxxxxxx#==##xxooooooooxx####xxxx##xxxooxxxxoooooxxxoooooxxxoooooo",
"+++****ooo*+++**o**********+++++*++++++***oxxxxooox############xxxxxxx#==##xoooooooooox####xxxx###xxooxxxxoo*oooxooooooxxxoooooo",
"+++*****o**+++*************++++***++++****oxxxxooxxx####==#####xxxx#x##==#xxooooooooooxx##xxxxx###xxxxxxxxooooooooooooooxxoooooo",
"++++++*****++++****++******+++***********oooxxxoooxxxx##==######x#########xoooooooooooxx##xxxxx######xxxxxxooooooooooooooooooooo",
"*++++++***++++++++++++*******************ooooooooooxxx##==#########==####xxoooooxooooxxx##xxxxx########xxxxxxxoo**ooxoooooooooox",
"*+++.+++*+++++++++++++**************ooo**oooooooooooox##==##xx#####===###xxooooxxxoooxxx##xxxxxx###==##xxxxxxxo***ooxxooooooooox",
"*+++++++++++++++++++++*************oooo*oooooooooooooxx#=##xxx#####===###xxxooooxxooxxxx##xxxxx########xxxxxxoo***ooxxooooooooox",
"++++++++++*****+++++++*********oooooooooooooooooooxxxxx####xxxx####===####xxxxoooooxxxxxxxxxxxx#######xxoooooo****ooxxoo*oooooox",
"++++++++++********++++********ooooooooooooooooooooxxxxxx##xxxxxxx###=######xxxoooooxxxxxxxxxxx#####xxxxooooo******ooxoo***oooooo",
"+*****++++*ooo***************oooooooooooooooooooooxxxxxxxxxxxxxxx###########xxoooooxxxxxxxxxxxx###xxxxooooo*******ooxxo***oooooo",
"*******+++**oo**************oooooooooooooooooooxxxxxxxxxxxxxxxxxx##########xxxoooooxxxxxxxxxxxx###xxxxxooooo*****ooxxxoooooooooo",
"**ooo**********************oooooooooooooooooooxxxx########xxxxxxx###=#####xxxxoooooxxxx###xxxxxx#xxxxxxxxxooooooooxxxxxooooooooo",
"ooooooo*****************oooooooooooooooooooooox###########xxxxxx####==####xxooooooxxxx####xxoxxxxxxxxxx###xooooxxxxxxxxxxxoo**oo",
"ooxxxooo***************ooooooooooooooooooooooox####===####xxxxxx####=#####xoooooooxxxx####xxooxxxxxxxx####xxooxxxxxxxxx##xoo***o",
"xxxxxxoo***************ooooooooooooooooooooooox###########xxxxxx##########xoooooooxxxx####xxooxxxxxxxx####xxxxxxxxxxxxxxxxoo****",
"xxxxxxxooo*************oooooooooooooxooooooooxxx########xxxxxxxx######xxxxxoooooooxxxxx##xxxoxxxxxxxxxxxxxxxxxx#####xxxxxxooo***",
"xxx###xooo******o*******ooooxooo*oooxxoooooxxxxxxxx###xxxxx#######xxxxxxooooooooooxxxxxxxxxxoxxxxxxxxxxxxxxxxx######xxxxoooooo**",
"xx####xoooo****ooo******oooxxxoo*ooxxxoooooxxxxxxxx###xxxxx######xxxxxxoooooooooooxxxxxxxxxxoxxxxxxxxxxxoxxxx########xxooooooo**",
"xx####xxoooo**ooooo***oooooxxxoo*ooxxxooooxxxxxxxxxxxxxxxxxx##xxxxxxxxxoooooooooooxxxxxxxxxxoxxxxxxxxxxxxxx##########xxxoooooo**",
"xx#####xxoooooooooooooooxxxxxxoo*ooxxxooooxxxxxxxxxxxxxxxxxxxxxxxxxxxxxxxxxxxoooooxx#xxxoooooxxxxxxxxxxxxx############xxooo*****",
"xx#####xxxxooooxxxxxxxxxxxxxxxoo*ooxxxooooxx######xxooooooooooooooxxxxxxxxxxxxoooox##xxooooooxxxxxxxxxxxx##====####==##xxoo*****",
"xx#####xxxxxooxxxxxxxxxxxxxxxxoo*ooxxxooooxx######xxoooooooooooooooxxxxxxxxxxxoooox##xxoooooxxxxxxxxxxxx###====###===##xxo**++**",
"xx####xxxxxooooxxxxxxxxxxxxxxxoooooxxxooooxx######xxooooooooooooooxxxxxxxxxxxxxooox###xoooooooxxxxxxxxxx###====####==##xxo**++**",
"xxxxxxxxxoooooooxxxxxxxxxxooooooooooooooxxx#######xxxxxxoooxxxxxxxxxxxxxxxxxxxxooox###xxooooooooxxxxxxxx###====#######xxxoo*****",
"xxxxoooooooooooooooooooooooooooxxxoooooxxxx########xxxxxxxxxxxxxxxxxxxxxxxxxxxxooox####xxxxooooooooxxxx#####==########xxxoo*****",
"xxooooooooo***oooooooooooooooooxxxoooooxxxx#########xxxxxxxxxxxxxxxxxxxoooxxxxxooox####xxxxooooooooxxxxx#############xxxoooo****",
"xxoooooooooooooooooooooo*ooooooxxxoooooxxxxx#######xxxxxxxxoooxxxxxxxxxoooxxxxxooox###xxxxooooooooooxxxx####==#######xxxoooo****",
"xxoooooo*oooooooooooo*****oooooooooooooooxxxxxxxxxxxxxxxxxoooooooxxxxxoooooxxxooooxxxxxxooooooooooooxxxxx###==#######xxxooo*****",
"xooooo****oooooxxoo*******ooooo***ooxxoooooxxxxxxxxxxxxxxxoo**oooooxxxooooooxxooooxxxxxooooo*ooooooooxxxx##===######xxxxooo****o",
"oooo******ooooxxxoo*******ooxoo***ooxxoooooxxxxoooxxxxxxxxo****oooooxooo*oooooooooxxxxooooo***oooooooxxxx##===######xxxxooo****o",
"ooo*******ooooooooo********ooo**+**oooo**oooxxooooxxxxxxxoo****oooooooo**ooooooooooxxxoooo*****oooooooxxxx##==######xxxxxooo**oo",
"xoo****ooooooooooooooo*********+++**oo****ooooooooooooooooooo***ooooooo**ooooooooooxxxxooo********oooooooxx##=#######xxxxxxooooo",
"xxo***oooooooooooooooooo****+++++++********oooooooooooooooooooo******************ooxxxxooo***+++++*ooooooox##############xxxxxxx",
"xxo***oooooooooooooxxxoo***++++++++++++++**ooooooooooo****ooooo*******************oxxxxooo**++++++*oooo**ox###############xxxxxx",
"xoo***oooooooooo*ooxxooo***+++++++++*******oooooooooo******oo*********************oxxxoooo**++++.+**ooo**oxx##############xxxxxx",
"ooo****oooooooo**oooooo****+++++++*********oooooooooo*********++++****************oxxooo****++++.++*ooo**ooxx###########xxxxxxxo",
"oo*****oooooooo***ooooo****+++******oooooooooooo*oooooooo**++++++++********oooo***ooxoo******+++.++****ooooxxx#########xxxxxxxoo",
"o******oooooooo***oooo*****+++****ooooooooooooo****oooooo**+++....+********oooo***oooo**+++**+++.++****oooooxxx########xxxxxxxoo",
"oo*****oooooooo***ooooo*****++******ooooooooooo***ooooooo**+++...++********oooo***oooo**++***++++++****ooooxxx########xxxxxxxxoo",
"oo*****oooooooooooooooooo******************oooo***ooooo****++++++++++******ooooo*oooo**********+++++****ooxxx######xxxxxxxxxxxoo",
"oo*****oooooooooooo***ooooo*******+++++++**oooo***ooooo****+++++++++++****oooooooo****************+++***ooxx#######xxxx##xxxxxxx",
"oo*****oooooooooooo***oooooo*****++++++++**oooo***ooxoo*****++++++++++****oooooooo*****************++**ooox#######xxoxx##xxxxxxx",
"oo******ooooooooooo***ooooooo******+*++++**ooooo*oooooo*******************oooooooo*****************++**oooxx#######xxxx##xxxxxxx",
"oo********ooooooooo***ooooooo*************ooxxooooooooo********ooooooo****ooooooooo*****+******oo**++**oooxxxx#####xxxx##xxxooxx",
"**********ooxxoooo****oooooooo******oo****oxxxoooooooooooooo*ooxxxxxxoo***ooooooooooo**++++****ooo**+**ooxooxxx#####xxx#xxxxooox",
"**********ooxxoooo****oooooooo*****oooo**ooxxxxoooooooooooooooxxxxxxxxoo**ooooooooooo**++++****ooo****ooxxoooxx#########xxxoooox",
"****o*****ooxxoooo****oooooooo****oooooooooxxxxooooooooooooooxxx#####xxoooooooooooooo***++****ooooo***ooxxxooxx#######xxxxxooooo",
"***ooo*****oooooooo***ooxoooooo**ooooooooooxxoooooooxooooooxxxx#######xxooooooooooo*********ooooooo**oooxxxooxxx######xxoooooooo",
"**oooo*****oooooooo***ooxxooooooooooxxxxxxxooooo*ooxxxxoooxxx##########xxxoooooooo********ooooooooooooooxxxxxxxxxx####xooooooo**",
"**ooooo*****ooooooo***ooxxoooooooooxxxxxxxxoooo**oox#xxooxxx####==######xxxoo**oo*********ooxxxooooooooxxxxxxxxxxx####xooooooo**",
"**ooooo****ooooooooo*ooxxxooooooooxxxxxxxxxooooooooxxxxooxx####=====####xxoo*************oooooooooooooxxxxxxxxxxx#####xooooooo**",
"***ooo****ooooooooooooxxxxxooxxxxxxxxxxxxoooooooooxxxxxooxx#######===##xxoo********ooooooooooooooooxxxxxxxxxxx########xooooooo**",
"+********oooxooo*ooooxxxxxxxxxx##xxxxooooooooooxxxxxxxxoxxx########==#xxoo*********ooooxxxoo*oooooxxxxxxxxxx###=====##xxoooooo**",
"+********ooxxxoo**ooxxxx#xxxxxx###xxoooooooooooxxxxoooooxxxx#######==#xoo*****+++**oxxxxxxo***ooooxx##xxxxx####=====##xxoooooo**",
"*********ooxxxoooooooxxxxxxxxxx###xxxxoooooooooxxxxoooxxxxxx#######==#xxoo*********oooxxxxoo*oooooxxxxxxxxx####=====##xxoooooo**",
"**oooo****ooxxoooooooooooooooxx###xxxxxxxooo*ooooooooxxxxxxxxxxxxx####xxxooo*******ooooooooooooooooxxxxxxxxxx##=====###xxxxxxoo*",
"ooooooo***ooooxxxxoo**ooooooooxx##xxxxxxxxoo***ooooooxxxxxxxxxxxxxxxxxxxxxxoooo***ooooooooooooxxxxooooxxxxxxxx#======##xxxxxxooo",
"ooooooo***ooooxxxxo*******ooooxx##xxxxxxxxo*******oooxxx#xxxxxxxxxxxxxxxxxxooooo**oooooooooooxxxxxoooooxxxxxxx#======##xxxxxxxoo",
"ooooooo***ooooxxxxoo*****oooooxxxxxxxxxxxxo*******oooxxxxxxxxxxxxxxxxxxxxxxoooo*******oooooooooxxooooooxxxxxxx##===####xxxxxxxoo",
"ooooooo***oooooxxxoooooooooooooxxxxxxxxxxxo*******ooooxxxxxxxxxxxxxxxxxxxxoooo****************ooooooooxxxxxxxxx#####xxxxxxxooooo",
"oooo****oo***oooxxooooooooooooooooxxxxxxxoo******oooooxxxxxxxxxxxxxxxxxxxxooo******+++**********ooooxxxxxxxxxxxxxxxxxxxxxxoooooo",
"ooo****ooo****ooxooooooooooooooooooxxxxxxoo******ooooooxxxxxxxxxxxxxxxxxxxoo*******+++*****+++****ooxxxxxxxxxxxxxxxxooxxxxoooooo",
"ooo****ooo****oooooooooooooooooooooxxxxxxoo******ooooooxxxxxxxxxxxxxxxxxxooo******+++++****++*****ooxxxxxxxxxxxxxxxxxxxxxxoooooo",
"oooooooooooooooooooooooooooooooooooxxooooooooooooooooooxxxxxxxx##xxxooooooooo*****+++++************ooooxxxxooxxx#xxxxxxxxxoooooo",
"oooooooooooooooooooxxxooooooxxxxxxxoooooooooooooooooooooxxxxxxx###xoooo***oooo**+++++++*****o******oooooxxoooox####xxxxxxooooooo",
"ooooooooooooooooooxxxxoooooxxxxxxxxooooooooooooooooooooooxxxxxx##xxooo*****ooo**++++++++***ooo**+***oooooooooox#####xxxxxooooooo",
"***ooooooooooooooooooooooooxxxxxxxxoooooooooooooooooooooooxxxxx##xxoooo****oo***+++++++*****o**+++**oooooooooox######xxxxxooooox",
"********oooooooxxoooooooooxxxxxxxxxxxxxooooxxoooooooooooooxxxxxxxxxxoooooo*****+++*************+++**ooooooooxxxxxx####xxxxxxoxxx",
"+*******ooooxxxxxxoooooooxxx#xxxoxxxxxxxooxxxxooooo**o**oooxxxxxxxxxxxxoooo****+++*ooo********++++*oooooooxxxxxxxxx###xxxxxxxxxx",
"+++******oooxxxxxxoo*oooxxx###xxoxxx#xxxooxxxxoooo*******ooxxxxxxxxxxxxxooo***++++*oooo*******++++*ooooooxxxxxxxoxx###xxxxxxxxxx",
"+++*****ooooxxxxxoooooooxxxx#xxxooxxxxxxooxxxoooo*******oooxxxxxxxxxxxxoooo****++**ooo********++++*oooooooxxxxxxoxx###xxxxxxxxxx",
"++++****ooooooooooooxoooooxxxxxoooxxxxxxoooxxoo*******oooooxxxxxxxxxxxoooo*****************+++++++*oooooooooxxxxxxxxxxxxxxxxxxxx",
"++++****oooooooooooxxxxoooooooooooxxxxxoooooooo******ooooooooxxxxxxxxooooo****************+++++++**oooo***ooooxxxxxoooxxxxx###xx",
"++++****ooooooooooxx##xoooooooooooxxxxxxooooooo******oooxoooooxxxxxoooooo*****************+++++****oooo****oooxxxxxooooxxxx###xx",
"++++***oooooooooooxx##xxooxxxxxxoxxxxxxxxxxoooo*****ooooooooooxxxxxoooooo*******************+*****ooooo***ooooxxxxxoooxxxx#####x",
"+++++***oooooxooooxx##xxxxxxxxxxxxxxxxxxxxxooooooooooooooooxxxxxxoooooooooo***ooooooo************ooooooooooxxxx###xxxxx#########",
"***++***oooxxxxxoxxx##xxxx####xxxxxxxxx##xxoooooxooooooooooxxxxoooooooooooooooooooooooo***ooooooooooxoooooxx#######xxx##########",
"***++**oooxxxxxxxxx############xxxxxxxx###xooooxxxxooooooooxxxooooooooooooooooooooxxxoo***oxxxxooooxxxoooxx#########x###===#####",
"***++**oooxx###xxxx############xxxxxxx####xxoxxxxxxooooooooooooooo****oooooooooooooxxxoo*ooxxxxxxxxxxxxooxx################===##",
"o**++**ooxx###############################xxxxxxxxxxooooooooo*********oooooooooooooxxxxoooooxxxxxxxxxxxooxx#####x##########===##",
"oo****ooxx##===#####x##==###xx################xxxxxxoooxxoo**+++++****ooooooooo**ooxxxxxxxxoooxxxxxx#xxxoxx####xxx#####xxx#====#",
"oo****ooxx#=====####x##===#xxx##=##############xxxxxooxxxo**+++++++***ooooooooo***oxxxx##xxoooxx######xxoxx####xxx#####xxx#=====",
"oo****ooxx#======######===##xx##########x######xxxxxxoxxxo**++++++++***ooooooooo*ooxxxxx#xxooox#######xxxxx###xxxx#####xxx#=====",
"ooo**oooxx#=========##===###x##########xxx######xxxxxooooo***++++++++**oooooxxooooooooxxxxxooox####xxxxxxxxxxxxxxx#####xxx#=====",
"oooooooxxx#=============##############xxxxx######xxxxoooooo***++++++++*ooooxxxxxxoooooooxooooox####xxxxxxxxxxxxxxx##=##xxx#====="
};
